# xmcd
#
# Track frame offsets:
#	150
#	9328
#	18788
#	29283
#	40228
#	51688
#	61528
#	70973
#	81588
#	90983
#	99235
#	110975
#	120408
#	128763
#	137840
#	146915
#	155970
#	164948
#	177020
#	186288
#	197203
#	208228
#
# Disc length: 2913 seconds
#
# Revision: 0
# Processed by: cddbd v1.5.1PL2 Copyright (c) Steve Scherf et al.
# Submitted via: dBpowerAMP V4.0
#
DISCID=450b5f16
DTITLE=Fats Domino - Fats Domino - The Originals - Vol. 10
DYEAR=1995
DGENRE=R&B
TTITLE0=I'm Walkin' - Upspeeded
TTITLE1=Hold Hands - Extended Stereo Version
TTITLE2=Won't You Come Back (Everything Reminds Me Of You) (Come On Home)
TTITLE3=Let The Four Winds Blow - Alternate Take 9
TTITLE4=Those Eyes - Extended Version
TTITLE5=Rockin' Bicycle - Extended Version
TTITLE6=Hands Across The Table - Alternate Stereo Take
TTITLE7=Margie - Version 2
TTITLE8=The Sheik Of Araby - Version 2
TTITLE9=My Heart Is Bleeding (My Bleeding Heart) - Alternate Take
TTITLE10=Every Night (About This Time) - Take 8
TTITLE11=I'm Ready (Ready, Willing And Able) - Undubbed
TTITLE12=When I Was Young - Alternate Take
TTITLE13=Rose Mary - Version 1
TTITLE14=Walking To New Orleans - Undubbed
TTITLE15=Don't Come Knockin' - Undubbed
TTITLE16=I'm Walkin' - ARAL
TTITLE17=Are You Going My Way (Little School Girl) - Version 2
TTITLE18=Would You
TTITLE19=Long Lonesome Journey - Alternate Take
TTITLE20=Poor Poor Me (Last Walk) - Alternate Take
TTITLE21=Tired Of Crying - Alternate Take
EXTD=R&B
EXTT0=
EXTT1=
EXTT2=
EXTT3=
EXTT4=
EXTT5=
EXTT6=
EXTT7=
EXTT8=
EXTT9=
EXTT10=
EXTT11=
EXTT12=
EXTT13=
EXTT14=
EXTT15=
EXTT16=
EXTT17=
EXTT18=
EXTT19=
EXTT20=
EXTT21=
PLAYORDER=
